<?xml version="1.0" encoding="UTF-8" standalone="no"?>
<!-- Created with Inkscape (http://www.inkscape.org/) -->

<svg
   width="160mm"
   height="160mm"
   viewBox="0 0 160 160"
   version="1.1"
   id="svg5"
   sodipodi:docname="conlingo_logo_solo.svg"
   inkscape:version="1.2.1 (9c6d41e410, 2022-07-14)"
   inkscape:export-filename="conlingo_logo_title.png"
   inkscape:export-xdpi="96"
   inkscape:export-ydpi="96"
   xmlns:inkscape="http://www.inkscape.org/namespaces/inkscape"
   xmlns:sodipodi="http://sodipodi.sourceforge.net/DTD/sodipodi-0.dtd"
   xmlns="http://www.w3.org/2000/svg"
   xmlns:svg="http://www.w3.org/2000/svg">
  <sodipodi:namedview
     id="namedview7"
     pagecolor="#ffffff"
     bordercolor="#000000"
     borderopacity="0.25"
     inkscape:showpageshadow="2"
     inkscape:pageopacity="0.0"
     inkscape:pagecheckerboard="true"
     inkscape:deskcolor="#d1d1d1"
     inkscape:document-units="mm"
     showgrid="false"
     inkscape:zoom="0.5"
     inkscape:cx="1032"
     inkscape:cy="153"
     inkscape:window-width="2560"
     inkscape:window-height="1351"
     inkscape:window-x="-9"
     inkscape:window-y="186"
     inkscape:window-maximized="1"
     inkscape:current-layer="layer1" />
  <defs
     id="defs2">
    <rect
       x="644.88141"
       y="158.39192"
       width="1629.174"
       height="330.92596"
       id="rect13450" />
  </defs>
  <g
     inkscape:label="Layer 1"
     inkscape:groupmode="layer"
     id="layer1">
    <g
       id="g13518"
       transform="matrix(1.1728224,0,0,1.1728224,-2.4632224,-11.37288)">
      <path
         id="path234"
         style="fill:#ff9500;fill-opacity:1;stroke:none;stroke-width:3.96875"
         d="M 57.493968,17.997358 A 40,40 0 0 0 17.493826,57.9975 40,40 0 0 0 57.493968,97.997642 40,40 0 0 0 96.647651,66.177363 H 75.728514 A 20,20 0 0 1 57.493968,77.997313 20,20 0 0 1 37.494155,57.9975 20,20 0 0 1 57.493968,37.997687 20,20 0 0 1 75.728514,49.818154 H 96.647651 A 40,40 0 0 0 57.493968,17.997358 Z" />
      <path
         id="rect8302"
         style="fill:#006aff;stroke-width:3.95104"
         d="M 75.727966,66.177139 H 96.646793 V 137.81972 H 75.727966 Z" />
      <path
         id="rect8306"
         style="fill:#006aff;stroke-width:3.19487"
         transform="rotate(90)"
         d="m 117.14459,-123.12972 h 20.67349 v 47.40014 h -20.67349 z" />
    </g>
    <text
       xml:space="preserve"
       transform="scale(0.26458333)"
       id="text13448"
       style="font-size:266.667px;font-family:'Splatoon Square';-inkscape-font-specification:'Splatoon Square, Normal';white-space:pre;shape-inside:url(#rect13450);display:inline;fill:#006aff;fill-opacity:1;stroke:none;stroke-width:15" />
    <text
       xml:space="preserve"
       style="font-size:70.5556px;font-family:'Splatoon Square';-inkscape-font-specification:'Splatoon Square, Normal';fill:#006aff;fill-opacity:1;stroke:none;stroke-width:3.96875"
       x="198.314"
       y="88.305847"
       id="text13456"><tspan
         sodipodi:role="line"
         id="tspan13454"
         style="stroke-width:3.96875"
         x="198.314"
         y="88.305847"></tspan></text>
  </g>
</svg>
